<?xml version="1.0" encoding="UTF-8"?>
<svg width="1062px" height="666px" viewBox="0 0 1062 666" version="1.1" xmlns="http://www.w3.org/2000/svg" xmlns:xlink="http://www.w3.org/1999/xlink">
    <!-- Generator: Sketch 55.1 (78136) - https://sketchapp.com -->
    <title>Group 5</title>
    <desc>Created with Sketch.</desc>
    <g id="Page-1" stroke="none" stroke-width="1" fill="none" fill-rule="evenodd">
        <g id="Tableau-des-scores" transform="translate(-308.000000, -1328.000000)">
            <g id="Group-5" transform="translate(308.000000, 1328.204325)">
                <path d="M956.311878,623.055675 L104.968122,623.055675 C86.3622905,623.055675 71.28,632.511912 71.28,644.175675 C71.28,655.839438 86.3622905,665.295675 104.968122,665.295675 L956.311878,665.295675 C974.91771,665.295675 990,655.839438 990,644.175675 C990,632.511912 974.91771,623.055675 956.311878,623.055675" id="Fill-5-Copy" fill="#AC676B"></path>
                <path d="M1022.36441,575.095675 L38.9155887,575.095675 C17.4226459,575.095675 -5.68434189e-13,592.82612 -5.68434189e-13,614.695675 C-5.68434189e-13,636.56523 17.4226459,654.295675 38.9155887,654.295675 L1022.36441,654.295675 C1043.85735,654.295675 1061.28,636.56523 1061.28,614.695675 C1061.28,592.82612 1043.85735,575.095675 1022.36441,575.095675" id="Fill-5" fill="#EBD9D9"></path>
                <polyline id="Fill-15" fill="#EDECEB" points="377.51171 386.76 352.44 386.76 380.965389 249.48 415.8 331.778548 364.990871 331.778548 364.990871 345.832726 377.51171 345.832726 377.51171 386.76"></polyline>
                <polyline id="Fill-16" fill="#EDECEB" points="683.192386 476.52 683.192386 344.984562 695.493657 344.984562 695.493657 331.054099 646.8 331.054099 681.023743 249.48 718.08 429.398351 683.192386 429.398351 683.192386 476.52"></polyline>
                <polyline id="Fill-17" fill="#AC676B" points="96.36 432.520822 377.252456 432.520822 377.252456 344.52 682.798088 344.52 682.798088 476.52 964.92 476.52 964.92 608.52 96.36 608.52 96.36 432.520822"></polyline>
                <polygon id="Fill-18" fill="#C18C8F" points="708.84 495 964.92 495 964.92 476.52 708.84 476.52"></polygon>
                <polygon id="Fill-19" fill="#F19279" points="377.52 608.52 683.76 608.52 683.76 344.52 377.52 344.52"></polygon>
                <polygon id="Fill-20" fill="#C35434" points="365.64 344.52 695.64 344.52 695.64 331.32 365.64 331.32"></polygon>
                <polygon id="Fill-21" fill="#994044" points="682.44 476.52 978.12 476.52 978.12 463.32 682.44 463.32"></polygon>
                <polygon id="Fill-22" fill="#994044" points="83.16 432.96 376.2 432.96 376.2 419.76 83.16 419.76"></polygon>
                <polyline id="Fill-23" fill="#51392D" points="83.16 419.76 132.436244 385.44 376.2 385.44 376.2 419.76 83.16 419.76"></polyline>
                <polyline id="Fill-24" fill="#51392D" points="365.64 331.32 414.916664 297 646.363336 297 695.64 331.32 365.64 331.32"></polyline>
                <polyline id="Fill-25" fill="#51392D" points="682.44 463.32 682.44 429 928.604956 429 978.12 463.32 682.44 463.32"></polyline>
                <text id="1" font-family="Pacifico-Regular, Pacifico" font-size="158.4" font-weight="normal" fill="#FFFEFB">
                    <tspan x="493.36452" y="528.095675">1</tspan>
                </text>
                <text id="2" font-family="Pacifico-Regular, Pacifico" font-size="158.4" font-weight="normal" fill="#FFFEFB">
                    <tspan x="197.68452" y="561.095675">2</tspan>
                </text>
                <text id="3" font-family="Pacifico-Regular, Pacifico" font-size="125.4" font-weight="normal" fill="#FFFEFB">
                    <tspan x="790.36452" y="582.775675">3</tspan>
                </text>
                <polygon id="Fill-26" fill="#C18C8F" points="97.68 451.44 351.12 451.44 351.12 432.96 97.68 432.96"></polygon>
                <polygon id="Fill-27" fill="#994044" points="351.12 608.52 377.52 608.52 377.52 450.12 351.12 450.12"></polygon>
                <polyline id="Fill-28" fill="#D7754F" points="377.52 609.84 377.52 385.44 377.52 609.84"></polyline>
                <polygon id="Fill-29" fill="#813D27" points="351.12 432.96 377.52 432.96 377.52 419.76 351.12 419.76"></polygon>
                <polygon id="Fill-30" fill="#473429" points="351.12 419.76 377.52 419.76 377.52 385.44 351.12 385.44"></polygon>
                <polygon id="Fill-31" fill="#AC676B" points="351.12 451.44 377.52 451.44 377.52 432.96 351.12 432.96"></polygon>
                <polygon id="Fill-32" fill="#994044" points="682.44 608.52 708.84 608.52 708.84 495 682.44 495"></polygon>
                <polygon id="Fill-33" fill="#AC676B" points="682.44 495 708.84 495 708.84 476.52 682.44 476.52"></polygon>
                <polygon id="Fill-34" fill="#813D27" points="682.44 476.52 708.84 476.52 708.84 463.32 682.44 463.32"></polygon>
                <polygon id="Fill-35" fill="#473429" points="683.76 463.32 710.16 463.32 710.16 429 683.76 429"></polygon>
                <polygon id="Fill-36" fill="#F2A896" points="377.52 376.2 683.76 376.2 683.76 344.52 377.52 344.52"></polygon>
                <path d="M425.237746,191.4 L424.708066,191.4 C420.606762,191.4 417.282652,188.109888 417.282652,184.056 C417.282652,179.999664 420.606762,176.712 424.708066,176.712 L424.883801,176.712 C429.346475,176.712 433.341348,173.500224 433.796773,169.108512 C434.207646,165.13296 431.898343,161.637216 427.987624,160.019088 C392.162475,145.179312 386.477083,72.779712 385.944928,64.571568 L385.44,56.76 L459.36,56.76 L459.36,71.448 L401.48137,71.448 C404.137193,94.843536 413.102144,137.928336 433.724994,146.469408 C442.818652,150.23688 448.69463,158.721648 448.69463,168.092592 C448.69463,180.993552 438.172818,191.4 425.237746,191.4" id="Fill-37" fill="#B16F30"></path>
                <path d="M634.722254,191.4 L635.251934,191.4 C639.350762,191.4 642.677348,188.109888 642.677348,184.056 C642.677348,179.999664 639.350762,176.712 635.251934,176.712 L635.073724,176.712 C630.613525,176.712 626.616177,173.500224 626.163227,169.108512 C625.752354,165.13296 628.056707,161.637216 631.972376,160.019088 C667.797525,145.179312 673.482917,72.779712 674.015072,64.571568 L674.52,56.76 L600.6,56.76 L600.6,71.448 L658.47863,71.448 C655.822807,94.843536 646.857856,137.928336 626.235006,146.469408 C617.141348,150.23688 611.26537,158.721648 611.26537,168.092592 C611.26537,180.993552 621.787182,191.4 634.722254,191.4" id="Fill-38" fill="#B16F30"></path>
                <polyline id="Fill-39" fill="#B16F30" points="551.76 273.24 509.52 273.24 516.991986 188.76 544.285524 188.76 551.76 273.24"></polyline>
                <path d="M600.6,303.6 L460.68,303.6 L460.68,303.59752 C476.002623,280.49783 501.684065,266.64 529.168744,266.64 L532.111256,266.64 C559.595935,266.64 585.277377,280.49783 600.6,303.59752 L600.6,303.6" id="Fill-40" fill="#E79A2E"></path>
                <polygon id="Fill-41" fill="#B16F30" points="506.88 293.04 554.4 293.04 554.4 277.2 506.88 277.2"></polygon>
                <polyline id="Fill-42" fill="#BA7C31" points="529.880465 293.04 505.56 293.04 505.56 277.2 534.6 277.2 529.880465 293.04"></polyline>
                <polyline id="Fill-43" fill="#BA7C31" points="553.08 293.04 539.88 293.04 541.630044 277.2 553.08 277.2 553.08 293.04"></polyline>
                <polygon id="Fill-44" fill="#BB7630" points="460.68 314.16 600.6 314.16 600.6 303.6 460.68 303.6"></polygon>
                <path d="M530.638772,221.76 C483.253328,221.76 444.84,182.928564 444.84,135.0329 L444.84,36.96 L616.44,36.96 L616.44,135.0329 C616.44,182.928564 578.026672,221.76 530.638772,221.76" id="Fill-45" fill="#E79A2E"></path>
                <path d="M622.126441,22.44 L439.156038,22.44 C435.006352,22.44 431.64,25.9858397 431.64,30.357387 C431.64,34.7341603 435.006352,38.28 439.156038,38.28 L622.126441,38.28 C626.276127,38.28 629.64,34.7341603 629.64,30.357387 C629.64,25.9858397 626.276127,22.44 622.126441,22.44" id="Fill-46" fill="#D6842F"></path>
                <path d="M597.964046,151.8 C595.320674,151.8 592.68,150.223454 592.68,147.077857 L592.68,61.4846416 C592.68,58.3340477 595.317977,56.76 597.955954,56.76 C600.596628,56.76 603.24,58.3365462 603.24,61.4846416 L603.24,147.077857 C603.24,150.225952 600.602023,151.8 597.964046,151.8" id="Fill-47" fill="#EBAD3C"></path>
                <path d="M584.358467,187.44 C582.664796,187.44 580.903571,186.418571 580.104988,184.943456 C578.751499,182.446912 579.723792,179.745069 581.798659,178.158433 C585.543071,175.289309 588.049801,170.630783 588.4889,165.792304 C588.776004,162.629171 591.289972,161.04 593.654355,161.04 C596.013914,161.04 598.223889,162.619032 597.934373,165.792304 C597.212994,173.760968 593.796701,180.467419 588.04015,185.47318 C587.813362,185.729171 587.560035,185.972488 587.265694,186.19553 L586.568442,186.722719 C585.914617,187.219493 585.142574,187.44 584.358467,187.44" id="Fill-48" fill="#EBAD3C"></path>
                <path d="M518.76,204.6 C488.86854,204.6 464.64,180.458672 464.64,150.674808 L464.64,38.28 L572.88,38.28 L572.88,150.674808 C572.88,180.458672 548.649,204.6 518.76,204.6" id="Fill-49" fill="#EBAD3C"></path>
                <path d="M163.472383,294.36 L163.017387,294.36 C159.502852,294.36 156.654825,291.524739 156.654825,288.025959 C156.654825,284.527178 159.502852,281.689469 163.017387,281.689469 L163.169872,281.689469 C166.994295,281.689469 170.417831,278.917867 170.806422,275.130174 C171.160581,271.699949 169.183194,268.681057 165.830982,267.287911 C135.122459,254.482717 130.250316,192.021284 129.792861,184.940478 L129.36,178.2 L192.72,178.2 L192.72,190.872979 L143.110709,190.872979 C145.385687,211.057686 153.071426,248.229474 170.747395,255.594296 C178.541349,258.848236 183.578275,266.168987 183.578275,274.253642 C183.578275,285.381674 174.559522,294.36 163.472383,294.36" id="Fill-50" fill="#5A6264"></path>
                <path d="M344.727617,294.36 L345.182613,294.36 C348.697148,294.36 351.547635,291.524739 351.547635,288.025959 C351.547635,284.527178 348.697148,281.689469 345.182613,281.689469 L345.032588,281.689469 C341.205705,281.689469 337.782169,278.917867 337.393578,275.130174 C337.041879,271.699949 339.016806,268.681057 342.371477,267.287911 C373.077541,254.482717 377.952143,192.021284 378.407139,184.940478 L378.84,178.2 L315.48,178.2 L315.48,190.872979 L365.089291,190.872979 C362.814313,211.057686 355.131033,248.229474 337.455064,255.594296 C329.66111,258.845787 324.624184,266.168987 324.624184,274.251194 C324.624184,285.381674 333.640478,294.36 344.727617,294.36" id="Fill-51" fill="#5A6264"></path>
                <polyline id="Fill-52" fill="#6D7579" points="273.24 365.64 236.28 365.64 242.818844 291.72 266.701156 291.72 273.24 365.64"></polyline>
                <path d="M315.48,390.72 L194.04,390.72 C207.339409,370.917843 229.626705,359.04 253.481827,359.04 L256.035708,359.04 C279.89083,359.04 302.180591,370.917843 315.48,390.72" id="Fill-53" fill="#CECECB"></path>
                <polygon id="Fill-54" fill="#5A6264" points="233.64 382.8 275.88 382.8 275.88 369.6 233.64 369.6"></polygon>
                <polyline id="Fill-55" fill="#6A7173" points="253.539538 382.8 233.64 382.8 233.64 369.6 257.4 369.6 253.539538 382.8"></polyline>
                <polyline id="Fill-56" fill="#6A7173" points="275.88 382.8 262.68 382.8 264.430082 369.6 275.88 369.6 275.88 382.8"></polyline>
                <polygon id="Fill-57" fill="#7A8187" points="194.04 401.28 315.48 401.28 315.48 390.72 194.04 390.72"></polygon>
                <path d="M254.76,320.76 L254.76,320.76 C213.934004,320.76 180.84,287.47846 180.84,246.421113 L180.84,162.36 L328.68,162.36 L328.68,246.421113 C328.68,287.47846 295.585996,320.76 254.76,320.76" id="Fill-58" fill="#CECECB"></path>
                <path d="M332.827367,149.16 L176.692633,149.16 C173.151584,149.16 170.28,152.112964 170.28,155.76 C170.28,159.404512 173.151584,162.36 176.692633,162.36 L332.827367,162.36 C336.368416,162.36 339.24,159.404512 339.24,155.76 C339.24,152.112964 336.368416,149.16 332.827367,149.16" id="Fill-59" fill="#7A8187"></path>
                <path d="M312.841173,260.04 C310.861759,260.04 308.88,258.683147 308.88,255.971941 L308.88,182.268055 C308.88,179.554356 310.857068,178.2 312.836482,178.2 C314.818241,178.2 316.8,179.55685 316.8,182.268055 L316.8,255.971941 C316.8,258.685641 314.820586,260.042491 312.841173,260.04" id="Fill-60" fill="#D8D9D5"></path>
                <path d="M301.180507,290.4 C299.729986,290.4 298.219527,289.584347 297.536224,288.404354 C296.375808,286.406357 297.207759,284.24617 298.986745,282.974504 C302.194672,280.677983 304.345278,276.952307 304.721694,273.080895 C304.968642,270.551666 307.121646,269.28 309.149977,269.28 C311.171115,269.28 313.065183,270.544614 312.818235,273.080895 C312.197268,279.45803 309.272252,284.822063 304.335688,288.827459 C304.141486,289.03196 303.923309,289.227058 303.671565,289.405703 L303.074574,289.828808 C302.513547,290.223706 301.854219,290.4 301.180507,290.4" id="Fill-61" fill="#D8D9D5"></path>
                <path d="M244.198783,307.56 C218.683188,307.56 198,286.483661 198,260.48306 L198,162.36 L290.4,162.36 L290.4,260.48306 C290.4,286.483661 269.714378,307.56 244.198783,307.56" id="Fill-62" fill="#D8D9D5"></path>
                <path d="M740.312383,337.92 L739.857387,337.92 C736.345312,337.92 733.494825,335.084739 733.494825,331.58351 C733.494825,328.087178 736.345312,325.249469 739.857387,325.249469 L740.009872,325.249469 C743.836755,325.249469 747.257831,322.480315 747.646422,318.690174 C748.000581,315.257501 746.023194,312.243506 742.670982,310.847911 C711.962459,298.045166 707.087857,235.581284 706.632861,228.500478 L706.2,221.76 L769.56,221.76 L769.56,234.432979 L719.950709,234.432979 C722.223228,254.617686 729.908967,291.789474 747.587395,299.156745 C755.381349,302.405787 760.418275,309.728987 760.418275,317.811194 C760.418275,328.941674 751.399522,337.92 740.312383,337.92" id="Fill-63" fill="#AE672F"></path>
                <path d="M920.247617,337.92 L920.700154,337.92 C924.217148,337.92 927.065175,335.084739 927.065175,331.58351 C927.065175,328.087178 924.217148,325.247021 920.700154,325.247021 L920.552588,325.247021 C916.725705,325.247021 913.29971,322.480315 912.911119,318.690174 C912.561879,315.257501 914.536806,312.243506 917.889018,310.847911 C948.597541,298.045166 953.469684,235.581284 953.927139,228.500478 L954.36,221.76 L891,221.76 L891,234.432979 L940.609291,234.432979 C938.334313,254.617686 930.651033,291.787025 912.975064,299.156745 C905.18111,302.405787 900.144184,309.728987 900.144184,317.811194 C900.144184,328.941674 909.162938,337.92 920.247617,337.92" id="Fill-64" fill="#AE672F"></path>
                <polyline id="Fill-65" fill="#985A2D" points="848.76 409.2 811.8 409.2 818.340922 335.28 842.219078 335.28 848.76 409.2"></polyline>
                <path d="M891,434.28 L769.56,434.28 C782.856944,414.477843 805.14424,402.6 829.001827,402.6 L831.555708,402.6 C855.41083,402.6 877.698126,414.477843 891,434.28" id="Fill-66" fill="#CE8A46"></path>
                <polygon id="Fill-67" fill="#AE672F" points="809.16 425.04 851.4 425.04 851.4 411.84 809.16 411.84"></polygon>
                <polyline id="Fill-68" fill="#B77535" points="830.377537 425.04 810.48 425.04 810.48 411.84 834.24 411.84 830.377537 425.04"></polyline>
                <polyline id="Fill-69" fill="#B77535" points="851.4 425.04 838.2 425.04 839.947735 411.84 851.4 411.84 851.4 425.04"></polyline>
                <polygon id="Fill-70" fill="#AE672F" points="769.56 444.84 891 444.84 891 434.28 769.56 434.28"></polygon>
                <path d="M830.278773,364.32 C789.453455,364.32 756.36,331.03846 756.36,289.981113 L756.36,205.92 L904.2,205.92 L904.2,289.981113 C904.2,331.03846 871.101639,364.32 830.278773,364.32" id="Fill-71" fill="#CE8A46"></path>
                <path d="M908.347274,192.72 L752.210274,192.72 C748.669174,192.72 745.8,195.675488 745.8,199.317476 C745.8,202.964512 748.669174,205.92 752.210274,205.92 L908.347274,205.92 C911.888374,205.92 914.76,202.964512 914.76,199.317476 C914.76,195.675488 911.888374,192.72 908.347274,192.72" id="Fill-72" fill="#AE672F"></path>
                <path d="M888.363518,303.6 C886.381759,303.6 884.4,302.243191 884.4,299.532068 L884.4,225.827932 C884.4,223.114314 886.379414,221.76 888.356482,221.76 C890.338241,221.76 892.32,223.116809 892.32,225.827932 L892.32,299.532068 C892.32,302.245686 890.342932,303.6 888.363518,303.6" id="Fill-73" fill="#D6A167"></path>
                <path d="M878.01867,333.96 C876.56822,333.96 875.057833,333.141997 874.374563,331.962003 C873.2166,329.966357 874.048511,327.80617 875.827411,326.532154 C879.035184,324.235633 881.185687,320.509957 881.562085,316.638544 C881.809021,314.109316 883.961921,312.84 885.990154,312.84 C888.011195,312.84 889.905172,314.102264 889.658236,316.638544 C889.037299,323.01803 886.112424,328.379713 881.176097,332.385109 C880.981905,332.589609 880.763738,332.784708 880.509609,332.963352 L879.915044,333.386457 C879.354044,333.783706 878.69235,333.96 878.01867,333.96" id="Fill-74" fill="#D6A167"></path>
                <path d="M821.038783,349.8 C795.523188,349.8 774.84,328.723661 774.84,302.72306 L774.84,204.6 L867.24,204.6 L867.24,302.72306 C867.24,328.723661 846.554378,349.8 821.038783,349.8" id="Fill-75" fill="#D6A167"></path>
                <path d="M593.548857,16.3976607 L589.220341,14.0283936 C585.316575,11.8948256 582.105174,8.68588046 579.971606,4.78211396 L577.602339,0.451142826 C577.273343,-0.150380942 576.409113,-0.150380942 576.077661,0.451142826 L573.708394,4.78211396 C571.574826,8.68588046 568.36588,11.8948256 564.464569,14.0283936 L560.131143,16.3976607 C559.529619,16.7266574 559.529619,17.5933426 560.131143,17.9223393 L564.464569,20.2916064 C568.36588,22.4251744 571.574826,25.6341195 573.708394,29.537886 L576.077661,33.8688572 C576.409113,34.4703809 577.273343,34.4703809 577.602339,33.8688572 L579.971606,29.537886 C582.105174,25.6341195 585.316575,22.4251744 589.220341,20.2916064 L593.548857,17.9223393 C594.150381,17.5933426 594.150381,16.7266574 593.548857,16.3976607" id="Fill-76" fill="#F4F6D8"></path>
                <path d="M282.028857,153.679877 L277.697886,151.310822 C273.79412,149.17499 270.585174,145.966331 268.451606,142.062914 L266.082339,137.734785 C265.753343,137.128405 264.886657,137.128405 264.560116,137.734785 L262.190849,142.062914 C260.054826,145.966331 256.84588,149.17499 252.942114,151.310822 L248.611143,153.679877 C248.009619,154.006389 248.009619,154.872997 248.611143,155.201964 L252.942114,157.57102 C256.84588,159.706852 260.054826,162.913055 262.190849,166.816472 L264.560116,171.147056 C264.886657,171.750981 265.753343,171.750981 266.082339,171.147056 L268.451606,166.816472 C270.585174,162.913055 273.79412,159.706852 277.697886,157.57102 L282.028857,155.201964 C282.630381,154.872997 282.630381,154.006389 282.028857,153.679877" id="Fill-78" fill="#F4F6D8"></path>
                <path d="M242.637635,119.709715 L240.30563,118.433943 C238.202725,117.283578 236.476028,115.556825 235.3257,113.453851 L234.04997,111.124181 C233.871512,110.798606 233.408488,110.798606 233.23003,111.124181 L231.9543,113.453851 C230.803972,115.556825 229.077275,117.283578 226.976782,118.433943 L224.642365,119.709715 C224.319212,119.885767 224.319212,120.35363 224.642365,120.529682 L226.976782,121.805454 C229.077275,122.955819 230.803972,124.682572 231.9543,126.785546 L233.23003,129.117627 C233.408488,129.440791 233.871512,129.440791 234.04997,129.117627 L235.3257,126.785546 C236.476028,124.682572 238.202725,122.955819 240.30563,121.805454 L242.637635,120.529682 C242.960788,120.35363 242.960788,119.885767 242.637635,119.709715" id="Fill-79" fill="#F4F6D8"></path>
                <path d="M798.044096,182.541638 L792.713403,179.626728 C787.911786,176.998816 783.961184,173.048214 781.333272,168.244102 L778.418362,162.915904 C778.011572,162.174699 776.948428,162.174699 776.541638,162.915904 L773.626728,168.244102 C770.998816,173.048214 767.048214,176.998816 762.244102,179.626728 L756.915904,182.541638 C756.174699,182.945932 756.174699,184.011572 756.915904,184.418362 L762.244102,187.333272 C767.048214,189.961184 770.998816,193.911786 773.626728,198.713403 L776.541638,204.044096 C776.948428,204.785301 778.011572,204.785301 778.418362,204.044096 L781.333272,198.713403 C783.961184,193.911786 787.911786,189.961184 792.713403,187.333272 L798.044096,184.418362 C798.785301,184.011572 798.785301,182.945932 798.044096,182.541638" id="Fill-80" fill="#F4F6D8"></path>
                <path d="M802.839515,216.010247 L805.503052,214.550819 C807.905969,213.239941 809.88147,211.264501 811.194995,208.864265 L812.651861,206.195597 C812.855145,205.828134 813.38681,205.828134 813.590093,206.195597 L815.04696,208.864265 C816.360485,211.264501 818.335985,213.239941 820.736296,214.550819 L823.40244,216.010247 C823.77252,216.213524 823.77252,216.745173 823.40244,216.94845 L820.736296,218.405271 C818.335985,219.718756 816.360485,221.694195 815.04696,224.097038 L813.590093,226.760494 C813.38681,227.133169 812.855145,227.133169 812.651861,226.760494 L811.194995,224.097038 C809.88147,221.694195 807.905969,219.718756 805.503052,218.405271 L802.839515,216.94845 C802.466828,216.745173 802.466828,216.213524 802.839515,216.010247" id="Fill-81" fill="#F4F6D8"></path>
            </g>
        </g>
    </g>
</svg>