<?xml version="1.0" encoding="UTF-8"?>
<svg width="48px" height="47px" viewBox="0 0 48 47" version="1.1" xmlns="http://www.w3.org/2000/svg" xmlns:xlink="http://www.w3.org/1999/xlink">
    <!-- Generator: Sketch 55.1 (78136) - https://sketchapp.com -->
    <title>star</title>
    <desc>Created with Sketch.</desc>
    <g id="Page-1" stroke="none" stroke-width="1" fill="none" fill-rule="evenodd">
        <g id="Tableau-des-scores" transform="translate(-2631.000000, -706.000000)">
            <g id="Group-3-Copy-11" transform="translate(2541.215385, 694.000000)">
                <g id="star" transform="translate(90.129618, 11.999640)">
                    <path d="M23.359156,3.55271368e-14 C10.4576241,3.55271368e-14 -5.25801624e-13,10.47 -5.25801624e-13,23.3856 C-5.25801624e-13,36.3012 10.4576241,46.7736 23.359156,46.7736 C36.2594894,46.7736 46.7171135,36.3012 46.7171135,23.3856 C46.7171135,10.47 36.2594894,3.55271368e-14 23.359156,3.55271368e-14" id="Fill-8" fill="#FCDA04"></path>
                    <path d="M23.359156,5.20896 C33.3721064,5.20896 41.5152695,13.36296 41.5152695,23.38536 C41.5152695,33.40896 33.3721064,41.56416 23.359156,41.56416 C13.3474043,41.56416 5.20424113,33.40896 5.20424113,23.38536 C5.20424113,13.36296 13.3474043,5.20896 23.359156,5.20896" id="Fill-10" fill="#FCAE04"></path>
                    <polygon id="Fill-12" fill="#FCDA04" points="23.359156 11.46444 26.9980496 18.84924 35.1364184 20.03364 29.2477872 25.78164 30.6381418 33.89724 23.359156 30.06444 16.0789716 33.89724 17.4681277 25.78164 11.580695 20.03364 19.7190638 18.84924"></polygon>
                </g>
            </g>
        </g>
    </g>
</svg>